<svg width="357.66875px" height="51.2px" xmlns="http://www.w3.org/2000/svg" viewBox="71.165625 49.4 357.66875 51.2" style="background: none;" preserveAspectRatio="xMidYMid"><defs><filter id="editing-lego" x="-100%" y="-100%" width="300%" height="300%"><feFlood flood-color="#000" result="f1"></feFlood><feFlood flood-color="#ffff00" result="f2"></feFlood><feMorphology operator="dilate" radius="3" in="SourceAlpha"></feMorphology><feConvolveMatrix order="5,5" divisor="1" result="cm1" kernelMatrix="0 1 1 1 0  1 0 0 0 1  1 0 0 0 1  1 0 0 0 1  0 1 1 1 0"></feConvolveMatrix><feComposite operator="in" in="f1" in2="cm1" result="c1"></feComposite><feMorphology operator="dilate" radius="3"></feMorphology><feConvolveMatrix order="5,5" divisor="1" result="cm2" kernelMatrix="0 1 1 1 0  1 0 0 0 1  1 0 0 0 1  1 0 0 0 1  0 1 1 1 0"></feConvolveMatrix><feComposite operator="in" in="f2" in2="cm2" result="c2"></feComposite><feMerge><feMergeNode in="c2"></feMergeNode><feMergeNode in="c1"></feMergeNode><feMergeNode in="SourceGraphic"></feMergeNode></feMerge></filter></defs><g filter="url(#editing-lego)"><g transform="translate(125.27998375892639, 81.625)"><path d="M2.43 0L2.43-11.81L9.65-11.81L9.65-10.55L3.92-10.55L3.92-6.55L8.77-6.55L8.77-5.29L3.92-5.29L3.92 0L2.43 0ZM13.43 0L13.43-8.75L14.65-8.75L14.78-6.68L14.83-6.68L14.83-6.68Q15.52-7.74 16.52-8.35L16.52-8.35L16.52-8.35Q17.51-8.96 18.74-8.96L18.74-8.96L18.74-8.96Q19.22-8.96 19.64-8.88L19.64-8.88L19.64-8.88Q20.05-8.80 20.47-8.60L20.47-8.60L20.12-7.33L20.12-7.33Q19.66-7.49 19.34-7.56L19.34-7.56L19.34-7.56Q19.03-7.63 18.50-7.63L18.50-7.63L18.50-7.63Q17.51-7.63 16.61-7.07L16.61-7.07L16.61-7.07Q15.70-6.50 14.90-5.13L14.90-5.13L14.90 0L13.43 0ZM22.68-4.36L22.68-4.36L22.68-4.36Q22.68-5.45 23.03-6.31L23.03-6.31L23.03-6.31Q23.38-7.16 23.98-7.76L23.98-7.76L23.98-7.76Q24.57-8.35 25.35-8.66L25.35-8.66L25.35-8.66Q26.14-8.96 27-8.96L27-8.96L27-8.96Q27.86-8.96 28.65-8.66L28.65-8.66L28.65-8.66Q29.43-8.35 30.02-7.76L30.02-7.76L30.02-7.76Q30.62-7.16 30.97-6.31L30.97-6.31L30.97-6.31Q31.32-5.45 31.32-4.36L31.32-4.36L31.32-4.36Q31.32-3.28 30.97-2.42L30.97-2.42L30.97-2.42Q30.62-1.57 30.02-0.98L30.02-0.98L30.02-0.98Q29.43-0.40 28.65-0.09L28.65-0.09L28.65-0.09Q27.86 0.22 27 0.22L27 0.22L27 0.22Q26.14 0.22 25.35-0.09L25.35-0.09L25.35-0.09Q24.57-0.40 23.98-0.98L23.98-0.98L23.98-0.98Q23.38-1.57 23.03-2.42L23.03-2.42L23.03-2.42Q22.68-3.28 22.68-4.36ZM24.21-4.36L24.21-4.36L24.21-4.36Q24.21-3.60 24.41-2.99L24.41-2.99L24.41-2.99Q24.61-2.38 24.98-1.94L24.98-1.94L24.98-1.94Q25.34-1.49 25.86-1.25L25.86-1.25L25.86-1.25Q26.37-1.01 27-1.01L27-1.01L27-1.01Q27.63-1.01 28.14-1.25L28.14-1.25L28.14-1.25Q28.66-1.49 29.03-1.94L29.03-1.94L29.03-1.94Q29.39-2.38 29.59-2.99L29.59-2.99L29.59-2.99Q29.79-3.60 29.79-4.36L29.79-4.36L29.79-4.36Q29.79-5.11 29.59-5.73L29.59-5.73L29.59-5.73Q29.39-6.35 29.03-6.80L29.03-6.80L29.03-6.80Q28.66-7.25 28.14-7.50L28.14-7.50L28.14-7.50Q27.63-7.74 27-7.74L27-7.74L27-7.74Q26.37-7.74 25.86-7.50L25.86-7.50L25.86-7.50Q25.34-7.25 24.98-6.80L24.98-6.80L24.98-6.80Q24.61-6.35 24.41-5.73L24.41-5.73L24.41-5.73Q24.21-5.11 24.21-4.36ZM34.07 0L34.07-8.75L35.30-8.75L35.42-7.25L35.50-7.25L35.50-7.25Q36.18-7.99 36.97-8.48L36.97-8.48L36.97-8.48Q37.76-8.96 38.79-8.96L38.79-8.96L38.79-8.96Q40.36-8.96 41.09-8.07L41.09-8.07L41.09-8.07Q41.81-7.18 41.81-5.44L41.81-5.44L41.81 0L40.34 0L40.34-5.24L40.34-5.24Q40.34-6.48 39.87-7.08L39.87-7.08L39.87-7.08Q39.40-7.69 38.32-7.69L38.32-7.69L38.32-7.69Q37.93-7.69 37.59-7.59L37.59-7.59L37.59-7.59Q37.26-7.49 36.94-7.29L36.94-7.29L36.94-7.29Q36.61-7.09 36.27-6.80L36.27-6.80L36.27-6.80Q35.93-6.50 35.55-6.10L35.55-6.10L35.55 0L34.07 0ZM46.91-3.40L46.91-7.54L44.44-7.54L44.44-8.66L46.96-8.75L47.16-11.20L48.38-11.20L48.38-8.75L52.69-8.75L52.69-7.54L48.38-7.54L48.38-3.38L48.38-3.38Q48.38-2.79 48.49-2.35L48.49-2.35L48.49-2.35Q48.60-1.91 48.85-1.60L48.85-1.60L48.85-1.60Q49.10-1.30 49.54-1.14L49.54-1.14L49.54-1.14Q49.97-0.99 50.60-0.99L50.60-0.99L50.60-0.99Q51.23-0.99 51.73-1.10L51.73-1.10L51.73-1.10Q52.24-1.21 52.70-1.39L52.70-1.39L53.03-0.31L53.03-0.31Q52.43-0.09 51.71 0.06L51.71 0.06L51.71 0.06Q50.99 0.22 50.27 0.22L50.27 0.22L50.27 0.22Q49.32 0.22 48.67-0.05L48.67-0.05L48.67-0.05Q48.02-0.31 47.64-0.78L47.64-0.78L47.64-0.78Q47.25-1.26 47.08-1.93L47.08-1.93L47.08-1.93Q46.91-2.59 46.91-3.40L46.91-3.40ZM55.53-5.38L55.53-6.50L63.27-6.50L63.27-5.38L55.53-5.38ZM66.04-4.36L66.04-4.36L66.04-4.36Q66.04-5.44 66.42-6.29L66.42-6.29L66.42-6.29Q66.80-7.15 67.42-7.74L67.42-7.74L67.42-7.74Q68.04-8.33 68.84-8.65L68.84-8.65L68.84-8.65Q69.64-8.96 70.49-8.96L70.49-8.96L70.49-8.96Q71.42-8.96 72.16-8.67L72.16-8.67L72.16-8.67Q72.90-8.37 73.41-7.83L73.41-7.83L73.41-7.83Q73.93-7.29 74.20-6.53L74.20-6.53L74.20-6.53Q74.47-5.78 74.47-4.86L74.47-4.86L74.47-4.86Q74.47-4.63 74.46-4.40L74.46-4.40L74.46-4.40Q74.45-4.18 74.41-4.01L74.41-4.01L67.57-4.01L67.57-4.01Q67.59-3.31 67.85-2.75L67.85-2.75L67.85-2.75Q68.11-2.20 68.55-1.80L68.55-1.80L68.55-1.80Q68.99-1.40 69.60-1.19L69.60-1.19L69.60-1.19Q70.20-0.97 70.92-0.97L70.92-0.97L70.92-0.97Q71.69-0.97 72.33-1.19L72.33-1.19L72.33-1.19Q72.97-1.40 73.58-1.78L73.58-1.78L74.11-0.81L74.11-0.81Q73.46-0.40 72.63-0.09L72.63-0.09L72.63-0.09Q71.80 0.22 70.74 0.22L70.74 0.22L70.74 0.22Q69.77 0.22 68.91-0.10L68.91-0.10L68.91-0.10Q68.06-0.41 67.42-1.00L67.42-1.00L67.42-1.00Q66.78-1.58 66.41-2.43L66.41-2.43L66.41-2.43Q66.04-3.28 66.04-4.36ZM67.55-5.08L73.10-5.08L73.10-5.08Q73.10-6.39 72.41-7.09L72.41-7.09L72.41-7.09Q71.73-7.79 70.51-7.79L70.51-7.79L70.51-7.79Q69.97-7.79 69.47-7.61L69.47-7.61L69.47-7.61Q68.98-7.43 68.58-7.08L68.58-7.08L68.58-7.08Q68.18-6.73 67.91-6.23L67.91-6.23L67.91-6.23Q67.64-5.72 67.55-5.08L67.55-5.08ZM77.27 0L77.27-8.75L78.50-8.75L78.62-7.25L78.70-7.25L78.70-7.25Q79.38-7.99 80.17-8.48L80.17-8.48L80.17-8.48Q80.96-8.96 81.99-8.96L81.99-8.96L81.99-8.96Q83.56-8.96 84.28-8.07L84.28-8.07L84.28-8.07Q85.01-7.18 85.01-5.44L85.01-5.44L85.01 0L83.54 0L83.54-5.24L83.54-5.24Q83.54-6.48 83.07-7.08L83.07-7.08L83.07-7.08Q82.60-7.69 81.52-7.69L81.52-7.69L81.52-7.69Q81.13-7.69 80.79-7.59L80.79-7.59L80.79-7.59Q80.46-7.49 80.14-7.29L80.14-7.29L80.14-7.29Q79.81-7.09 79.47-6.80L79.47-6.80L79.47-6.80Q79.13-6.50 78.75-6.10L78.75-6.10L78.75 0L77.27 0ZM87.48-4.36L87.48-4.36L87.48-4.36Q87.48-5.42 87.81-6.27L87.81-6.27L87.81-6.27Q88.15-7.13 88.69-7.72L88.69-7.72L88.69-7.72Q89.24-8.32 89.96-8.64L89.96-8.64L89.96-8.64Q90.68-8.96 91.46-8.96L91.46-8.96L91.46-8.96Q92.27-8.96 92.88-8.66L92.88-8.66L92.88-8.66Q93.49-8.35 94.10-7.83L94.10-7.83L94.05-9.45L94.05-12.82L95.53-12.82L95.53 0L94.30 0L94.18-1.15L94.12-1.15L94.12-1.15Q93.58-0.59 92.83-0.19L92.83-0.19L92.83-0.19Q92.09 0.22 91.28 0.22L91.28 0.22L91.28 0.22Q90.41 0.22 89.72-0.09L89.72-0.09L89.72-0.09Q89.03-0.40 88.52-0.98L88.52-0.98L88.52-0.98Q88.02-1.57 87.75-2.41L87.75-2.41L87.75-2.41Q87.48-3.26 87.48-4.36ZM89.01-4.37L89.01-4.37L89.01-4.37Q89.01-2.79 89.68-1.91L89.68-1.91L89.68-1.91Q90.36-1.03 91.58-1.03L91.58-1.03L91.58-1.03Q92.88-1.03 94.05-2.34L94.05-2.34L94.05-6.70L94.05-6.70Q93.46-7.25 92.89-7.49L92.89-7.49L92.89-7.49Q92.32-7.72 91.75-7.72L91.75-7.72L91.75-7.72Q91.17-7.72 90.67-7.48L90.67-7.48L90.67-7.48Q90.18-7.24 89.81-6.80L89.81-6.80L89.81-6.80Q89.44-6.35 89.23-5.74L89.23-5.74L89.23-5.74Q89.01-5.13 89.01-4.37ZM109.44-4.36L109.44-4.36L109.44-4.36Q109.44-5.45 109.83-6.31L109.83-6.31L109.83-6.31Q110.21-7.16 110.88-7.76L110.88-7.76L110.88-7.76Q111.55-8.35 112.44-8.66L112.44-8.66L112.44-8.66Q113.33-8.96 114.32-8.96L114.32-8.96L114.32-8.96Q115.40-8.96 116.18-8.59L116.18-8.59L116.18-8.59Q116.96-8.21 117.50-7.69L117.50-7.69L116.77-6.73L116.77-6.73Q116.23-7.20 115.64-7.47L115.64-7.47L115.64-7.47Q115.06-7.74 114.37-7.74L114.37-7.74L114.37-7.74Q113.62-7.74 112.99-7.50L112.99-7.50L112.99-7.50Q112.36-7.25 111.91-6.80L111.91-6.80L111.91-6.80Q111.47-6.35 111.22-5.73L111.22-5.73L111.22-5.73Q110.97-5.11 110.97-4.36L110.97-4.36L110.97-4.36Q110.97-3.60 111.21-2.99L111.21-2.99L111.21-2.99Q111.46-2.38 111.90-1.94L111.90-1.94L111.90-1.94Q112.34-1.49 112.96-1.25L112.96-1.25L112.96-1.25Q113.58-1.01 114.34-1.01L114.34-1.01L114.34-1.01Q115.15-1.01 115.82-1.32L115.82-1.32L115.82-1.32Q116.50-1.64 117.05-2.11L117.05-2.11L117.70-1.15L117.70-1.15Q116.98-0.50 116.09-0.14L116.09-0.14L116.09-0.14Q115.20 0.22 114.23 0.22L114.23 0.22L114.23 0.22Q113.20 0.22 112.33-0.09L112.33-0.09L112.33-0.09Q111.46-0.40 110.81-0.98L110.81-0.98L110.81-0.98Q110.16-1.57 109.80-2.42L109.80-2.42L109.80-2.42Q109.44-3.28 109.44-4.36ZM120.04-4.36L120.04-4.36L120.04-4.36Q120.04-5.44 120.42-6.29L120.42-6.29L120.42-6.29Q120.80-7.15 121.42-7.74L121.42-7.74L121.42-7.74Q122.04-8.33 122.84-8.65L122.84-8.65L122.84-8.65Q123.64-8.96 124.49-8.96L124.49-8.96L124.49-8.96Q125.42-8.96 126.16-8.67L126.16-8.67L126.16-8.67Q126.90-8.37 127.41-7.83L127.41-7.83L127.41-7.83Q127.93-7.29 128.20-6.53L128.20-6.53L128.20-6.53Q128.47-5.78 128.47-4.86L128.47-4.86L128.47-4.86Q128.47-4.63 128.46-4.40L128.46-4.40L128.46-4.40Q128.45-4.18 128.41-4.01L128.41-4.01L121.57-4.01L121.57-4.01Q121.59-3.31 121.85-2.75L121.85-2.75L121.85-2.75Q122.11-2.20 122.55-1.80L122.55-1.80L122.55-1.80Q122.99-1.40 123.60-1.19L123.60-1.19L123.60-1.19Q124.20-0.97 124.92-0.97L124.92-0.97L124.92-0.97Q125.69-0.97 126.33-1.19L126.33-1.19L126.33-1.19Q126.97-1.40 127.58-1.78L127.58-1.78L128.11-0.81L128.11-0.81Q127.46-0.40 126.63-0.09L126.63-0.09L126.63-0.09Q125.80 0.22 124.74 0.22L124.74 0.22L124.74 0.22Q123.77 0.22 122.91-0.10L122.91-0.10L122.91-0.10Q122.06-0.41 121.42-1.00L121.42-1.00L121.42-1.00Q120.78-1.58 120.41-2.43L120.41-2.43L120.41-2.43Q120.04-3.28 120.04-4.36ZM121.55-5.08L127.10-5.08L127.10-5.08Q127.10-6.39 126.41-7.09L126.41-7.09L126.41-7.09Q125.73-7.79 124.51-7.79L124.51-7.79L124.51-7.79Q123.97-7.79 123.47-7.61L123.47-7.61L123.47-7.61Q122.98-7.43 122.58-7.08L122.58-7.08L122.58-7.08Q122.18-6.73 121.91-6.23L121.91-6.23L121.91-6.23Q121.64-5.72 121.55-5.08L121.55-5.08ZM132.23 0L132.23-8.75L133.45-8.75L133.58-6.68L133.63-6.68L133.63-6.68Q134.32-7.74 135.31-8.35L135.31-8.35L135.31-8.35Q136.31-8.96 137.54-8.96L137.54-8.96L137.54-8.96Q138.02-8.96 138.44-8.88L138.44-8.88L138.44-8.88Q138.85-8.80 139.27-8.60L139.27-8.60L138.92-7.33L138.92-7.33Q138.46-7.49 138.14-7.56L138.14-7.56L138.14-7.56Q137.83-7.63 137.30-7.63L137.30-7.63L137.30-7.63Q136.31-7.63 135.41-7.07L135.41-7.07L135.41-7.07Q134.50-6.50 133.70-5.13L133.70-5.13L133.70 0L132.23 0ZM144.11-3.40L144.11-7.54L141.64-7.54L141.64-8.66L144.16-8.75L144.36-11.20L145.58-11.20L145.58-8.75L149.89-8.75L149.89-7.54L145.58-7.54L145.58-3.38L145.58-3.38Q145.58-2.79 145.69-2.35L145.69-2.35L145.69-2.35Q145.80-1.91 146.05-1.60L146.05-1.60L146.05-1.60Q146.30-1.30 146.74-1.14L146.74-1.14L146.74-1.14Q147.17-0.99 147.80-0.99L147.80-0.99L147.80-0.99Q148.43-0.99 148.93-1.10L148.93-1.10L148.93-1.10Q149.44-1.21 149.90-1.39L149.90-1.39L150.23-0.31L150.23-0.31Q149.63-0.09 148.91 0.06L148.91 0.06L148.91 0.06Q148.19 0.22 147.47 0.22L147.47 0.22L147.47 0.22Q146.52 0.22 145.87-0.05L145.87-0.05L145.87-0.05Q145.22-0.31 144.84-0.78L144.84-0.78L144.84-0.78Q144.45-1.26 144.28-1.93L144.28-1.93L144.28-1.93Q144.11-2.59 144.11-3.40L144.11-3.40ZM152.82-7.54L152.82-8.75L158.36-8.75L158.36 0L156.89 0L156.89-7.54L152.82-7.54ZM157.46-10.55L157.46-10.55L157.46-10.55Q156.94-10.55 156.61-10.85L156.61-10.85L156.61-10.85Q156.28-11.16 156.28-11.68L156.28-11.68L156.28-11.68Q156.28-12.20 156.61-12.52L156.61-12.52L156.61-12.52Q156.94-12.83 157.46-12.83L157.46-12.83L157.46-12.83Q157.97-12.83 158.31-12.52L158.31-12.52L158.31-12.52Q158.65-12.20 158.65-11.68L158.65-11.68L158.65-11.68Q158.65-11.16 158.31-10.85L158.31-10.85L158.31-10.85Q157.97-10.55 157.46-10.55ZM172.40-12.53L172.06-11.41L172.06-11.41Q171.52-11.66 171.06-11.75L171.06-11.75L171.06-11.75Q170.60-11.83 170.03-11.83L170.03-11.83L170.03-11.83Q168.84-11.83 168.33-11.22L168.33-11.22L168.33-11.22Q167.81-10.62 167.81-9.54L167.81-9.54L167.81-8.75L171.49-8.75L171.49-7.54L167.81-7.54L167.81 0L166.36 0L166.36-7.54L163.85-7.54L163.85-8.66L166.36-8.75L166.36-9.49L166.36-9.49Q166.36-11.09 167.21-12.06L167.21-12.06L167.21-12.06Q168.07-13.03 169.88-13.03L169.88-13.03L169.88-13.03Q171.18-13.03 172.40-12.53L172.40-12.53ZM174.42-7.54L174.42-8.75L179.96-8.75L179.96 0L178.49 0L178.49-7.54L174.42-7.54ZM179.06-10.55L179.06-10.55L179.06-10.55Q178.54-10.55 178.21-10.85L178.21-10.85L178.21-10.85Q177.88-11.16 177.88-11.68L177.88-11.68L177.88-11.68Q177.88-12.20 178.21-12.52L178.21-12.52L178.21-12.52Q178.54-12.83 179.06-12.83L179.06-12.83L179.06-12.83Q179.57-12.83 179.91-12.52L179.91-12.52L179.91-12.52Q180.25-12.20 180.25-11.68L180.25-11.68L180.25-11.68Q180.25-11.16 179.91-10.85L179.91-10.85L179.91-10.85Q179.57-10.55 179.06-10.55ZM185.04-4.36L185.04-4.36L185.04-4.36Q185.04-5.45 185.43-6.31L185.43-6.31L185.43-6.31Q185.81-7.16 186.48-7.76L186.48-7.76L186.48-7.76Q187.15-8.35 188.04-8.66L188.04-8.66L188.04-8.66Q188.93-8.96 189.92-8.96L189.92-8.96L189.92-8.96Q191.00-8.96 191.78-8.59L191.78-8.59L191.78-8.59Q192.56-8.21 193.10-7.69L193.10-7.69L192.37-6.73L192.37-6.73Q191.83-7.20 191.24-7.47L191.24-7.47L191.24-7.47Q190.66-7.74 189.97-7.74L189.97-7.74L189.97-7.74Q189.22-7.74 188.59-7.50L188.59-7.50L188.59-7.50Q187.96-7.25 187.52-6.80L187.52-6.80L187.52-6.80Q187.07-6.35 186.82-5.73L186.82-5.73L186.82-5.73Q186.57-5.11 186.57-4.36L186.57-4.36L186.57-4.36Q186.57-3.60 186.81-2.99L186.81-2.99L186.81-2.99Q187.06-2.38 187.50-1.94L187.50-1.94L187.50-1.94Q187.94-1.49 188.56-1.25L188.56-1.25L188.56-1.25Q189.18-1.01 189.94-1.01L189.94-1.01L189.94-1.01Q190.75-1.01 191.42-1.32L191.42-1.32L191.42-1.32Q192.10-1.64 192.65-2.11L192.65-2.11L193.30-1.15L193.30-1.15Q192.58-0.50 191.69-0.14L191.69-0.14L191.69-0.14Q190.80 0.22 189.83 0.22L189.83 0.22L189.83 0.22Q188.80 0.22 187.93-0.09L187.93-0.09L187.93-0.09Q187.06-0.40 186.41-0.98L186.41-0.98L186.41-0.98Q185.76-1.57 185.40-2.42L185.40-2.42L185.40-2.42Q185.04-3.28 185.04-4.36ZM195.86-2.27L195.86-2.27L195.86-2.27Q195.86-3.01 196.21-3.56L196.21-3.56L196.21-3.56Q196.56-4.10 197.33-4.50L197.33-4.50L197.33-4.50Q198.09-4.90 199.30-5.15L199.30-5.15L199.30-5.15Q200.50-5.40 202.19-5.54L202.19-5.54L202.19-5.54Q202.18-5.99 202.05-6.39L202.05-6.39L202.05-6.39Q201.92-6.79 201.65-7.08L201.65-7.08L201.65-7.08Q201.38-7.38 200.94-7.56L200.94-7.56L200.94-7.56Q200.50-7.74 199.87-7.74L199.87-7.74L199.87-7.74Q199.01-7.74 198.22-7.41L198.22-7.41L198.22-7.41Q197.42-7.07 196.81-6.70L196.81-6.70L196.24-7.70L196.24-7.70Q196.56-7.92 197.00-8.15L197.00-8.15L197.00-8.15Q197.44-8.37 197.94-8.55L197.94-8.55L197.94-8.55Q198.43-8.73 198.99-8.85L198.99-8.85L198.99-8.85Q199.55-8.96 200.12-8.96L200.12-8.96L200.12-8.96Q201.92-8.96 202.80-7.98L202.80-7.98L202.80-7.98Q203.67-7.00 203.67-5.36L203.67-5.36L203.67 0L202.46 0L202.34-1.19L202.28-1.19L202.28-1.19Q201.55-0.61 200.66-0.20L200.66-0.20L200.66-0.20Q199.76 0.22 198.83 0.22L198.83 0.22L198.83 0.22Q198.22 0.22 197.68 0.05L197.68 0.05L197.68 0.05Q197.14-0.13 196.73-0.44L196.73-0.44L196.73-0.44Q196.33-0.76 196.09-1.22L196.09-1.22L196.09-1.22Q195.86-1.67 195.86-2.27ZM197.30-2.38L197.30-2.38L197.30-2.38Q197.30-2.00 197.46-1.74L197.46-1.74L197.46-1.74Q197.62-1.48 197.88-1.31L197.88-1.31L197.88-1.31Q198.14-1.13 198.50-1.05L198.50-1.05L198.50-1.05Q198.85-0.97 199.22-0.97L199.22-0.97L199.22-0.97Q199.98-0.97 200.71-1.31L200.71-1.31L200.71-1.31Q201.44-1.64 202.19-2.27L202.19-2.27L202.19-4.57L202.19-4.57Q200.79-4.46 199.85-4.27L199.85-4.27L199.85-4.27Q198.90-4.07 198.33-3.79L198.33-3.79L198.33-3.79Q197.77-3.51 197.53-3.16L197.53-3.16L197.53-3.16Q197.30-2.81 197.30-2.38ZM208.91-3.40L208.91-7.54L206.44-7.54L206.44-8.66L208.96-8.75L209.16-11.20L210.38-11.20L210.38-8.75L214.69-8.75L214.69-7.54L210.38-7.54L210.38-3.38L210.38-3.38Q210.38-2.79 210.49-2.35L210.49-2.35L210.49-2.35Q210.60-1.91 210.85-1.60L210.85-1.60L210.85-1.60Q211.10-1.30 211.54-1.14L211.54-1.14L211.54-1.14Q211.97-0.99 212.60-0.99L212.60-0.99L212.60-0.99Q213.23-0.99 213.73-1.10L213.73-1.10L213.73-1.10Q214.24-1.21 214.70-1.39L214.70-1.39L215.03-0.31L215.03-0.31Q214.43-0.09 213.71 0.06L213.71 0.06L213.71 0.06Q212.99 0.22 212.27 0.22L212.27 0.22L212.27 0.22Q211.32 0.22 210.67-0.05L210.67-0.05L210.67-0.05Q210.02-0.31 209.64-0.78L209.64-0.78L209.64-0.78Q209.25-1.26 209.08-1.93L209.08-1.93L209.08-1.93Q208.91-2.59 208.91-3.40L208.91-3.40ZM217.62-7.54L217.62-8.75L223.16-8.75L223.16 0L221.69 0L221.69-7.54L217.62-7.54ZM222.26-10.55L222.26-10.55L222.26-10.55Q221.74-10.55 221.41-10.85L221.41-10.85L221.41-10.85Q221.08-11.16 221.08-11.68L221.08-11.68L221.08-11.68Q221.08-12.20 221.41-12.52L221.41-12.52L221.41-12.52Q221.74-12.83 222.26-12.83L222.26-12.83L222.26-12.83Q222.77-12.83 223.11-12.52L223.11-12.52L223.11-12.52Q223.45-12.20 223.45-11.68L223.45-11.68L223.45-11.68Q223.45-11.16 223.11-10.85L223.11-10.85L223.11-10.85Q222.77-10.55 222.26-10.55ZM227.88-4.36L227.88-4.36L227.88-4.36Q227.88-5.45 228.23-6.31L228.23-6.31L228.23-6.31Q228.58-7.16 229.18-7.76L229.18-7.76L229.18-7.76Q229.77-8.35 230.55-8.66L230.55-8.66L230.55-8.66Q231.34-8.96 232.20-8.96L232.20-8.96L232.20-8.96Q233.06-8.96 233.85-8.66L233.85-8.66L233.85-8.66Q234.63-8.35 235.22-7.76L235.22-7.76L235.22-7.76Q235.82-7.16 236.17-6.31L236.17-6.31L236.17-6.31Q236.52-5.45 236.52-4.36L236.52-4.36L236.52-4.36Q236.52-3.28 236.17-2.42L236.17-2.42L236.17-2.42Q235.82-1.57 235.22-0.98L235.22-0.98L235.22-0.98Q234.63-0.40 233.85-0.09L233.85-0.09L233.85-0.09Q233.06 0.22 232.20 0.22L232.20 0.22L232.20 0.22Q231.34 0.22 230.55-0.09L230.55-0.09L230.55-0.09Q229.77-0.40 229.18-0.98L229.18-0.98L229.18-0.98Q228.58-1.57 228.23-2.42L228.23-2.42L228.23-2.42Q227.88-3.28 227.88-4.36ZM229.41-4.36L229.41-4.36L229.41-4.36Q229.41-3.60 229.61-2.99L229.61-2.99L229.61-2.99Q229.81-2.38 230.18-1.94L230.18-1.94L230.18-1.94Q230.54-1.49 231.06-1.25L231.06-1.25L231.06-1.25Q231.57-1.01 232.20-1.01L232.20-1.01L232.20-1.01Q232.83-1.01 233.34-1.25L233.34-1.25L233.34-1.25Q233.86-1.49 234.23-1.94L234.23-1.94L234.23-1.94Q234.59-2.38 234.79-2.99L234.79-2.99L234.79-2.99Q234.99-3.60 234.99-4.36L234.99-4.36L234.99-4.36Q234.99-5.11 234.79-5.73L234.79-5.73L234.79-5.73Q234.59-6.35 234.23-6.80L234.23-6.80L234.23-6.80Q233.86-7.25 233.34-7.50L233.34-7.50L233.34-7.50Q232.83-7.74 232.20-7.74L232.20-7.74L232.20-7.74Q231.57-7.74 231.06-7.50L231.06-7.50L231.06-7.50Q230.54-7.25 230.18-6.80L230.18-6.80L230.18-6.80Q229.81-6.35 229.61-5.73L229.61-5.73L229.61-5.73Q229.41-5.11 229.41-4.36ZM239.27 0L239.27-8.75L240.50-8.75L240.62-7.25L240.70-7.25L240.70-7.25Q241.38-7.99 242.17-8.48L242.17-8.48L242.17-8.48Q242.96-8.96 243.99-8.96L243.99-8.96L243.99-8.96Q245.56-8.96 246.29-8.07L246.29-8.07L246.29-8.07Q247.01-7.18 247.01-5.44L247.01-5.44L247.01 0L245.54 0L245.54-5.24L245.54-5.24Q245.54-6.48 245.07-7.08L245.07-7.08L245.07-7.08Q244.60-7.69 243.52-7.69L243.52-7.69L243.52-7.69Q243.13-7.69 242.79-7.59L242.79-7.59L242.79-7.59Q242.46-7.49 242.14-7.29L242.14-7.29L242.14-7.29Q241.81-7.09 241.47-6.80L241.47-6.80L241.47-6.80Q241.13-6.50 240.75-6.10L240.75-6.10L240.75 0L239.27 0Z" fill="#fff"></path></g></g><style>text {
  font-size: 64px;
  font-family: Arial Black;
  dominant-baseline: central;
  text-anchor: middle;
}</style></svg>