<svg width="357.66875px" height="51.2px" xmlns="http://www.w3.org/2000/svg" viewBox="71.165625 49.4 357.66875 51.2" style="background: none;" preserveAspectRatio="xMidYMid"><defs><filter id="editing-lego" x="-100%" y="-100%" width="300%" height="300%"><feFlood flood-color="#000" result="f1"></feFlood><feFlood flood-color="#ffff00" result="f2"></feFlood><feMorphology operator="dilate" radius="3" in="SourceAlpha"></feMorphology><feConvolveMatrix order="5,5" divisor="1" result="cm1" kernelMatrix="0 1 1 1 0  1 0 0 0 1  1 0 0 0 1  1 0 0 0 1  0 1 1 1 0"></feConvolveMatrix><feComposite operator="in" in="f1" in2="cm1" result="c1"></feComposite><feMorphology operator="dilate" radius="3"></feMorphology><feConvolveMatrix order="5,5" divisor="1" result="cm2" kernelMatrix="0 1 1 1 0  1 0 0 0 1  1 0 0 0 1  1 0 0 0 1  0 1 1 1 0"></feConvolveMatrix><feComposite operator="in" in="f2" in2="cm2" result="c2"></feComposite><feMerge><feMergeNode in="c2"></feMergeNode><feMergeNode in="c1"></feMergeNode><feMergeNode in="SourceGraphic"></feMergeNode></feMerge></filter></defs><g filter="url(#editing-lego)"><g transform="translate(125.27998375892639, 81.625)"><path d="M2.43 0L2.43-11.81L9.65-11.81L9.65-10.55L3.92-10.55L3.92-6.55L8.77-6.55L8.77-5.29L3.92-5.29L3.92 0L2.43 0ZM19.89-8.75L19.89 0L18.68 0L18.56-1.53L18.49-1.53L18.49-1.53Q17.82-0.76 17.04-0.27L17.04-0.27L17.04-0.27Q16.25 0.22 15.23 0.22L15.23 0.22L15.23 0.22Q13.64 0.22 12.92-0.68L12.92-0.68L12.92-0.68Q12.19-1.57 12.19-3.31L12.19-3.31L12.19-8.75L13.68-8.75L13.68-3.51L13.68-3.51Q13.68-2.27 14.14-1.67L14.14-1.67L14.14-1.67Q14.60-1.06 15.70-1.06L15.70-1.06L15.70-1.06Q16.45-1.06 17.06-1.45L17.06-1.45L17.06-1.45Q17.68-1.84 18.41-2.68L18.41-2.68L18.41-8.75L19.89-8.75ZM23.06-11.61L23.06-12.82L27.52-12.82L27.52-2.83L27.52-2.83Q27.52-1.85 27.98-1.43L27.98-1.43L27.98-1.43Q28.44-1.01 29.23-1.01L29.23-1.01L29.23-1.01Q29.95-1.01 30.89-1.42L30.89-1.42L31.27-0.31L31.27-0.31Q30.67-0.09 30.15 0.06L30.15 0.06L30.15 0.06Q29.63 0.22 28.91 0.22L28.91 0.22L28.91 0.22Q27.50 0.22 26.78-0.58L26.78-0.58L26.78-0.58Q26.05-1.37 26.05-2.93L26.05-2.93L26.05-11.61L23.06-11.61ZM33.86-11.61L33.86-12.82L38.32-12.82L38.32-2.83L38.32-2.83Q38.32-1.85 38.78-1.43L38.78-1.43L38.78-1.43Q39.24-1.01 40.03-1.01L40.03-1.01L40.03-1.01Q40.75-1.01 41.69-1.42L41.69-1.42L42.07-0.31L42.07-0.31Q41.47-0.09 40.95 0.06L40.95 0.06L40.95 0.06Q40.43 0.22 39.71 0.22L39.71 0.22L39.71 0.22Q38.30 0.22 37.58-0.58L37.58-0.58L37.58-0.58Q36.85-1.37 36.85-2.93L36.85-2.93L36.85-11.61L33.86-11.61ZM44.50-1.15L45.22-2.12L45.22-2.12Q45.95-1.58 46.80-1.26L46.80-1.26L46.80-1.26Q47.65-0.94 48.83-0.94L48.83-0.94L48.83-0.94Q50.02-0.94 50.60-1.33L50.60-1.33L50.60-1.33Q51.17-1.73 51.17-2.30L51.17-2.30L51.17-2.30Q51.17-2.81 50.55-3.20L50.55-3.20L50.55-3.20Q49.93-3.60 48.33-4.00L48.33-4.00L48.33-4.00Q47.65-4.16 47.04-4.39L47.04-4.39L47.04-4.39Q46.44-4.63 45.99-4.94L45.99-4.94L45.99-4.94Q45.54-5.26 45.27-5.63L45.27-5.63L45.27-5.63Q45-6.01 45-6.48L45-6.48L45-6.48Q45-7.00 45.23-7.46L45.23-7.46L45.23-7.46Q45.47-7.92 45.93-8.25L45.93-8.25L45.93-8.25Q46.39-8.59 47.08-8.78L47.08-8.78L47.08-8.78Q47.77-8.96 48.67-8.96L48.67-8.96L48.67-8.96Q49.66-8.96 50.60-8.63L50.60-8.63L50.60-8.63Q51.53-8.30 52.18-7.85L52.18-7.85L51.46-6.89L51.46-6.89Q50.89-7.31 50.18-7.56L50.18-7.56L50.18-7.56Q49.48-7.81 48.67-7.81L48.67-7.81L48.67-7.81Q48.06-7.81 47.65-7.71L47.65-7.71L47.65-7.71Q47.23-7.61 46.98-7.44L46.98-7.44L46.98-7.44Q46.73-7.27 46.62-7.04L46.62-7.04L46.62-7.04Q46.51-6.80 46.51-6.55L46.51-6.55L46.51-6.55Q46.51-6.01 47.25-5.66L47.25-5.66L47.25-5.66Q47.99-5.31 49.18-5.00L49.18-5.00L49.18-5.00Q50.96-4.55 51.81-3.98L51.81-3.98L51.81-3.98Q52.67-3.40 52.67-2.39L52.67-2.39L52.67-2.39Q52.67-1.85 52.42-1.39L52.42-1.39L52.42-1.39Q52.16-0.92 51.67-0.56L51.67-0.56L51.67-0.56Q51.17-0.20 50.45 0.01L50.45 0.01L50.45 0.01Q49.72 0.22 48.78 0.22L48.78 0.22L48.78 0.22Q47.48 0.22 46.40-0.19L46.40-0.19L46.40-0.19Q45.31-0.59 44.50-1.15L44.50-1.15ZM57.71-3.40L57.71-7.54L55.24-7.54L55.24-8.66L57.76-8.75L57.96-11.20L59.18-11.20L59.18-8.75L63.49-8.75L63.49-7.54L59.18-7.54L59.18-3.38L59.18-3.38Q59.18-2.79 59.29-2.35L59.29-2.35L59.29-2.35Q59.40-1.91 59.65-1.60L59.65-1.60L59.65-1.60Q59.90-1.30 60.34-1.14L60.34-1.14L60.34-1.14Q60.77-0.99 61.40-0.99L61.40-0.99L61.40-0.99Q62.03-0.99 62.53-1.10L62.53-1.10L62.53-1.10Q63.04-1.21 63.50-1.39L63.50-1.39L63.83-0.31L63.83-0.31Q63.23-0.09 62.51 0.06L62.51 0.06L62.51 0.06Q61.79 0.22 61.07 0.22L61.07 0.22L61.07 0.22Q60.12 0.22 59.47-0.05L59.47-0.05L59.47-0.05Q58.82-0.31 58.44-0.78L58.44-0.78L58.44-0.78Q58.05-1.26 57.88-1.93L57.88-1.93L57.88-1.93Q57.71-2.59 57.71-3.40L57.71-3.40ZM66.26-2.27L66.26-2.27L66.26-2.27Q66.26-3.01 66.61-3.56L66.61-3.56L66.61-3.56Q66.96-4.10 67.72-4.50L67.72-4.50L67.72-4.50Q68.49-4.90 69.70-5.15L69.70-5.15L69.70-5.15Q70.90-5.40 72.59-5.54L72.59-5.54L72.59-5.54Q72.58-5.99 72.45-6.39L72.45-6.39L72.45-6.39Q72.32-6.79 72.05-7.08L72.05-7.08L72.05-7.08Q71.78-7.38 71.34-7.56L71.34-7.56L71.34-7.56Q70.90-7.74 70.27-7.74L70.27-7.74L70.27-7.74Q69.41-7.74 68.62-7.41L68.62-7.41L68.62-7.41Q67.82-7.07 67.21-6.70L67.21-6.70L66.64-7.70L66.64-7.70Q66.96-7.92 67.40-8.15L67.40-8.15L67.40-8.15Q67.84-8.37 68.34-8.55L68.34-8.55L68.34-8.55Q68.83-8.73 69.39-8.85L69.39-8.85L69.39-8.85Q69.95-8.96 70.52-8.96L70.52-8.96L70.52-8.96Q72.32-8.96 73.20-7.98L73.20-7.98L73.20-7.98Q74.07-7.00 74.07-5.36L74.07-5.36L74.07 0L72.86 0L72.74-1.19L72.68-1.19L72.68-1.19Q71.95-0.61 71.05-0.20L71.05-0.20L71.05-0.20Q70.16 0.22 69.23 0.22L69.23 0.22L69.23 0.22Q68.62 0.22 68.08 0.05L68.08 0.05L68.08 0.05Q67.54-0.13 67.13-0.44L67.13-0.44L67.13-0.44Q66.73-0.76 66.49-1.22L66.49-1.22L66.49-1.22Q66.26-1.67 66.26-2.27ZM67.70-2.38L67.70-2.38L67.70-2.38Q67.70-2.00 67.86-1.74L67.86-1.74L67.86-1.74Q68.02-1.48 68.28-1.31L68.28-1.31L68.28-1.31Q68.54-1.13 68.89-1.05L68.89-1.05L68.89-1.05Q69.25-0.97 69.62-0.97L69.62-0.97L69.62-0.97Q70.38-0.97 71.11-1.31L71.11-1.31L71.11-1.31Q71.84-1.64 72.59-2.27L72.59-2.27L72.59-4.57L72.59-4.57Q71.19-4.46 70.25-4.27L70.25-4.27L70.25-4.27Q69.30-4.07 68.73-3.79L68.73-3.79L68.73-3.79Q68.17-3.51 67.93-3.16L67.93-3.16L67.93-3.16Q67.70-2.81 67.70-2.38ZM77.04-4.36L77.04-4.36L77.04-4.36Q77.04-5.45 77.43-6.31L77.43-6.31L77.43-6.31Q77.81-7.16 78.48-7.76L78.48-7.76L78.48-7.76Q79.15-8.35 80.04-8.66L80.04-8.66L80.04-8.66Q80.93-8.96 81.92-8.96L81.92-8.96L81.92-8.96Q83.00-8.96 83.78-8.59L83.78-8.59L83.78-8.59Q84.56-8.21 85.10-7.69L85.10-7.69L84.37-6.73L84.37-6.73Q83.83-7.20 83.24-7.47L83.24-7.47L83.24-7.47Q82.66-7.74 81.97-7.74L81.97-7.74L81.97-7.74Q81.22-7.74 80.59-7.50L80.59-7.50L80.59-7.50Q79.96-7.25 79.52-6.80L79.52-6.80L79.52-6.80Q79.07-6.35 78.82-5.73L78.82-5.73L78.82-5.73Q78.57-5.11 78.57-4.36L78.57-4.36L78.57-4.36Q78.57-3.60 78.81-2.99L78.81-2.99L78.81-2.99Q79.06-2.38 79.50-1.94L79.50-1.94L79.50-1.94Q79.94-1.49 80.56-1.25L80.56-1.25L80.56-1.25Q81.18-1.01 81.94-1.01L81.94-1.01L81.94-1.01Q82.75-1.01 83.42-1.32L83.42-1.32L83.42-1.32Q84.10-1.64 84.65-2.11L84.65-2.11L85.30-1.15L85.30-1.15Q84.58-0.50 83.69-0.14L83.69-0.14L83.69-0.14Q82.80 0.22 81.83 0.22L81.83 0.22L81.83 0.22Q80.80 0.22 79.93-0.09L79.93-0.09L79.93-0.09Q79.06-0.40 78.41-0.98L78.41-0.98L78.41-0.98Q77.76-1.57 77.40-2.42L77.40-2.42L77.40-2.42Q77.04-3.28 77.04-4.36ZM88.31 0L88.31-12.82L89.78-12.82L89.78-4.14L89.86-4.14L94.57-8.75L96.26-8.75L92.77-5.27L96.73 0L95.08 0L91.85-4.37L89.78-2.38L89.78 0L88.31 0ZM109.44-4.36L109.44-4.36L109.44-4.36Q109.44-5.45 109.83-6.31L109.83-6.31L109.83-6.31Q110.21-7.16 110.88-7.76L110.88-7.76L110.88-7.76Q111.55-8.35 112.44-8.66L112.44-8.66L112.44-8.66Q113.33-8.96 114.32-8.96L114.32-8.96L114.32-8.96Q115.40-8.96 116.18-8.59L116.18-8.59L116.18-8.59Q116.96-8.21 117.50-7.69L117.50-7.69L116.77-6.73L116.77-6.73Q116.23-7.20 115.64-7.47L115.64-7.47L115.64-7.47Q115.06-7.74 114.37-7.74L114.37-7.74L114.37-7.74Q113.62-7.74 112.99-7.50L112.99-7.50L112.99-7.50Q112.36-7.25 111.91-6.80L111.91-6.80L111.91-6.80Q111.47-6.35 111.22-5.73L111.22-5.73L111.22-5.73Q110.97-5.11 110.97-4.36L110.97-4.36L110.97-4.36Q110.97-3.60 111.21-2.99L111.21-2.99L111.21-2.99Q111.46-2.38 111.90-1.94L111.90-1.94L111.90-1.94Q112.34-1.49 112.96-1.25L112.96-1.25L112.96-1.25Q113.58-1.01 114.34-1.01L114.34-1.01L114.34-1.01Q115.15-1.01 115.82-1.32L115.82-1.32L115.82-1.32Q116.50-1.64 117.05-2.11L117.05-2.11L117.70-1.15L117.70-1.15Q116.98-0.50 116.09-0.14L116.09-0.14L116.09-0.14Q115.20 0.22 114.23 0.22L114.23 0.22L114.23 0.22Q113.20 0.22 112.33-0.09L112.33-0.09L112.33-0.09Q111.46-0.40 110.81-0.98L110.81-0.98L110.81-0.98Q110.16-1.57 109.80-2.42L109.80-2.42L109.80-2.42Q109.44-3.28 109.44-4.36ZM120.04-4.36L120.04-4.36L120.04-4.36Q120.04-5.44 120.42-6.29L120.42-6.29L120.42-6.29Q120.80-7.15 121.42-7.74L121.42-7.74L121.42-7.74Q122.04-8.33 122.84-8.65L122.84-8.65L122.84-8.65Q123.64-8.96 124.49-8.96L124.49-8.96L124.49-8.96Q125.42-8.96 126.16-8.67L126.16-8.67L126.16-8.67Q126.90-8.37 127.41-7.83L127.41-7.83L127.41-7.83Q127.93-7.29 128.20-6.53L128.20-6.53L128.20-6.53Q128.47-5.78 128.47-4.86L128.47-4.86L128.47-4.86Q128.47-4.63 128.46-4.40L128.46-4.40L128.46-4.40Q128.45-4.18 128.41-4.01L128.41-4.01L121.57-4.01L121.57-4.01Q121.59-3.31 121.85-2.75L121.85-2.75L121.85-2.75Q122.11-2.20 122.55-1.80L122.55-1.80L122.55-1.80Q122.99-1.40 123.60-1.19L123.60-1.19L123.60-1.19Q124.20-0.97 124.92-0.97L124.92-0.97L124.92-0.97Q125.69-0.97 126.33-1.19L126.33-1.19L126.33-1.19Q126.97-1.40 127.58-1.78L127.58-1.78L128.11-0.81L128.11-0.81Q127.46-0.40 126.63-0.09L126.63-0.09L126.63-0.09Q125.80 0.22 124.74 0.22L124.74 0.22L124.74 0.22Q123.77 0.22 122.91-0.10L122.91-0.10L122.91-0.10Q122.06-0.41 121.42-1.00L121.42-1.00L121.42-1.00Q120.78-1.58 120.41-2.43L120.41-2.43L120.41-2.43Q120.04-3.28 120.04-4.36ZM121.55-5.08L127.10-5.08L127.10-5.08Q127.10-6.39 126.41-7.09L126.41-7.09L126.41-7.09Q125.73-7.79 124.51-7.79L124.51-7.79L124.51-7.79Q123.97-7.79 123.47-7.61L123.47-7.61L123.47-7.61Q122.98-7.43 122.58-7.08L122.58-7.08L122.58-7.08Q122.18-6.73 121.91-6.23L121.91-6.23L121.91-6.23Q121.64-5.72 121.55-5.08L121.55-5.08ZM132.23 0L132.23-8.75L133.45-8.75L133.58-6.68L133.63-6.68L133.63-6.68Q134.32-7.74 135.31-8.35L135.31-8.35L135.31-8.35Q136.31-8.96 137.54-8.96L137.54-8.96L137.54-8.96Q138.02-8.96 138.44-8.88L138.44-8.88L138.44-8.88Q138.85-8.80 139.27-8.60L139.27-8.60L138.92-7.33L138.92-7.33Q138.46-7.49 138.14-7.56L138.14-7.56L138.14-7.56Q137.83-7.63 137.30-7.63L137.30-7.63L137.30-7.63Q136.31-7.63 135.41-7.07L135.41-7.07L135.41-7.07Q134.50-6.50 133.70-5.13L133.70-5.13L133.70 0L132.23 0ZM144.11-3.40L144.11-7.54L141.64-7.54L141.64-8.66L144.16-8.75L144.36-11.20L145.58-11.20L145.58-8.75L149.89-8.75L149.89-7.54L145.58-7.54L145.58-3.38L145.58-3.38Q145.58-2.79 145.69-2.35L145.69-2.35L145.69-2.35Q145.80-1.91 146.05-1.60L146.05-1.60L146.05-1.60Q146.30-1.30 146.74-1.14L146.74-1.14L146.74-1.14Q147.17-0.99 147.80-0.99L147.80-0.99L147.80-0.99Q148.43-0.99 148.93-1.10L148.93-1.10L148.93-1.10Q149.44-1.21 149.90-1.39L149.90-1.39L150.23-0.31L150.23-0.31Q149.63-0.09 148.91 0.06L148.91 0.06L148.91 0.06Q148.19 0.22 147.47 0.22L147.47 0.22L147.47 0.22Q146.52 0.22 145.87-0.05L145.87-0.05L145.87-0.05Q145.22-0.31 144.84-0.78L144.84-0.78L144.84-0.78Q144.45-1.26 144.28-1.93L144.28-1.93L144.28-1.93Q144.11-2.59 144.11-3.40L144.11-3.40ZM152.82-7.54L152.82-8.75L158.36-8.75L158.36 0L156.89 0L156.89-7.54L152.82-7.54ZM157.46-10.55L157.46-10.55L157.46-10.55Q156.94-10.55 156.61-10.85L156.61-10.85L156.61-10.85Q156.28-11.16 156.28-11.68L156.28-11.68L156.28-11.68Q156.28-12.20 156.61-12.52L156.61-12.52L156.61-12.52Q156.94-12.83 157.46-12.83L157.46-12.83L157.46-12.83Q157.97-12.83 158.31-12.52L158.31-12.52L158.31-12.52Q158.65-12.20 158.65-11.68L158.65-11.68L158.65-11.68Q158.65-11.16 158.31-10.85L158.31-10.85L158.31-10.85Q157.97-10.55 157.46-10.55ZM172.40-12.53L172.06-11.41L172.06-11.41Q171.52-11.66 171.06-11.75L171.06-11.75L171.06-11.75Q170.60-11.83 170.03-11.83L170.03-11.83L170.03-11.83Q168.84-11.83 168.33-11.22L168.33-11.22L168.33-11.22Q167.81-10.62 167.81-9.54L167.81-9.54L167.81-8.75L171.49-8.75L171.49-7.54L167.81-7.54L167.81 0L166.36 0L166.36-7.54L163.85-7.54L163.85-8.66L166.36-8.75L166.36-9.49L166.36-9.49Q166.36-11.09 167.21-12.06L167.21-12.06L167.21-12.06Q168.07-13.03 169.88-13.03L169.88-13.03L169.88-13.03Q171.18-13.03 172.40-12.53L172.40-12.53ZM174.42-7.54L174.42-8.75L179.96-8.75L179.96 0L178.49 0L178.49-7.54L174.42-7.54ZM179.06-10.55L179.06-10.55L179.06-10.55Q178.54-10.55 178.21-10.85L178.21-10.85L178.21-10.85Q177.88-11.16 177.88-11.68L177.88-11.68L177.88-11.68Q177.88-12.20 178.21-12.52L178.21-12.52L178.21-12.52Q178.54-12.83 179.06-12.83L179.06-12.83L179.06-12.83Q179.57-12.83 179.91-12.52L179.91-12.52L179.91-12.52Q180.25-12.20 180.25-11.68L180.25-11.68L180.25-11.68Q180.25-11.16 179.91-10.85L179.91-10.85L179.91-10.85Q179.57-10.55 179.06-10.55ZM185.04-4.36L185.04-4.36L185.04-4.36Q185.04-5.45 185.43-6.31L185.43-6.31L185.43-6.31Q185.81-7.16 186.48-7.76L186.48-7.76L186.48-7.76Q187.15-8.35 188.04-8.66L188.04-8.66L188.04-8.66Q188.93-8.96 189.92-8.96L189.92-8.96L189.92-8.96Q191.00-8.96 191.78-8.59L191.78-8.59L191.78-8.59Q192.56-8.21 193.10-7.69L193.10-7.69L192.37-6.73L192.37-6.73Q191.83-7.20 191.24-7.47L191.24-7.47L191.24-7.47Q190.66-7.74 189.97-7.74L189.97-7.74L189.97-7.74Q189.22-7.74 188.59-7.50L188.59-7.50L188.59-7.50Q187.96-7.25 187.52-6.80L187.52-6.80L187.52-6.80Q187.07-6.35 186.82-5.73L186.82-5.73L186.82-5.73Q186.57-5.11 186.57-4.36L186.57-4.36L186.57-4.36Q186.57-3.60 186.81-2.99L186.81-2.99L186.81-2.99Q187.06-2.38 187.50-1.94L187.50-1.94L187.50-1.94Q187.94-1.49 188.56-1.25L188.56-1.25L188.56-1.25Q189.18-1.01 189.94-1.01L189.94-1.01L189.94-1.01Q190.75-1.01 191.42-1.32L191.42-1.32L191.42-1.32Q192.10-1.64 192.65-2.11L192.65-2.11L193.30-1.15L193.30-1.15Q192.58-0.50 191.69-0.14L191.69-0.14L191.69-0.14Q190.80 0.22 189.83 0.22L189.83 0.22L189.83 0.22Q188.80 0.22 187.93-0.09L187.93-0.09L187.93-0.09Q187.06-0.40 186.41-0.98L186.41-0.98L186.41-0.98Q185.76-1.57 185.40-2.42L185.40-2.42L185.40-2.42Q185.04-3.28 185.04-4.36ZM195.86-2.27L195.86-2.27L195.86-2.27Q195.86-3.01 196.21-3.56L196.21-3.56L196.21-3.56Q196.56-4.10 197.33-4.50L197.33-4.50L197.33-4.50Q198.09-4.90 199.30-5.15L199.30-5.15L199.30-5.15Q200.50-5.40 202.19-5.54L202.19-5.54L202.19-5.54Q202.18-5.99 202.05-6.39L202.05-6.39L202.05-6.39Q201.92-6.79 201.65-7.08L201.65-7.08L201.65-7.08Q201.38-7.38 200.94-7.56L200.94-7.56L200.94-7.56Q200.50-7.74 199.87-7.74L199.87-7.74L199.87-7.74Q199.01-7.74 198.22-7.41L198.22-7.41L198.22-7.41Q197.42-7.07 196.81-6.70L196.81-6.70L196.24-7.70L196.24-7.70Q196.56-7.92 197.00-8.15L197.00-8.15L197.00-8.15Q197.44-8.37 197.94-8.55L197.94-8.55L197.94-8.55Q198.43-8.73 198.99-8.85L198.99-8.85L198.99-8.85Q199.55-8.96 200.12-8.96L200.12-8.96L200.12-8.96Q201.92-8.96 202.80-7.98L202.80-7.98L202.80-7.98Q203.67-7.00 203.67-5.36L203.67-5.36L203.67 0L202.46 0L202.34-1.19L202.28-1.19L202.28-1.19Q201.55-0.61 200.66-0.20L200.66-0.20L200.66-0.20Q199.76 0.22 198.83 0.22L198.83 0.22L198.83 0.22Q198.22 0.22 197.68 0.05L197.68 0.05L197.68 0.05Q197.14-0.13 196.73-0.44L196.73-0.44L196.73-0.44Q196.33-0.76 196.09-1.22L196.09-1.22L196.09-1.22Q195.86-1.67 195.86-2.27ZM197.30-2.38L197.30-2.38L197.30-2.38Q197.30-2.00 197.46-1.74L197.46-1.74L197.46-1.74Q197.62-1.48 197.88-1.31L197.88-1.31L197.88-1.31Q198.14-1.13 198.50-1.05L198.50-1.05L198.50-1.05Q198.85-0.97 199.22-0.97L199.22-0.97L199.22-0.97Q199.98-0.97 200.71-1.31L200.71-1.31L200.71-1.31Q201.44-1.64 202.19-2.27L202.19-2.27L202.19-4.57L202.19-4.57Q200.79-4.46 199.85-4.27L199.85-4.27L199.85-4.27Q198.90-4.07 198.33-3.79L198.33-3.79L198.33-3.79Q197.77-3.51 197.53-3.16L197.53-3.16L197.53-3.16Q197.30-2.81 197.30-2.38ZM208.91-3.40L208.91-7.54L206.44-7.54L206.44-8.66L208.96-8.75L209.16-11.20L210.38-11.20L210.38-8.75L214.69-8.75L214.69-7.54L210.38-7.54L210.38-3.38L210.38-3.38Q210.38-2.79 210.49-2.35L210.49-2.35L210.49-2.35Q210.60-1.91 210.85-1.60L210.85-1.60L210.85-1.60Q211.10-1.30 211.54-1.14L211.54-1.14L211.54-1.14Q211.97-0.99 212.60-0.99L212.60-0.99L212.60-0.99Q213.23-0.99 213.73-1.10L213.73-1.10L213.73-1.10Q214.24-1.21 214.70-1.39L214.70-1.39L215.03-0.31L215.03-0.31Q214.43-0.09 213.71 0.06L213.71 0.06L213.71 0.06Q212.99 0.22 212.27 0.22L212.27 0.22L212.27 0.22Q211.32 0.22 210.67-0.05L210.67-0.05L210.67-0.05Q210.02-0.31 209.64-0.78L209.64-0.78L209.64-0.78Q209.25-1.26 209.08-1.93L209.08-1.93L209.08-1.93Q208.91-2.59 208.91-3.40L208.91-3.40ZM217.62-7.54L217.62-8.75L223.16-8.75L223.16 0L221.69 0L221.69-7.54L217.62-7.54ZM222.26-10.55L222.26-10.55L222.26-10.55Q221.74-10.55 221.41-10.85L221.41-10.85L221.41-10.85Q221.08-11.16 221.08-11.68L221.08-11.68L221.08-11.68Q221.08-12.20 221.41-12.52L221.41-12.52L221.41-12.52Q221.74-12.83 222.26-12.83L222.26-12.83L222.26-12.83Q222.77-12.83 223.11-12.52L223.11-12.52L223.11-12.52Q223.45-12.20 223.45-11.68L223.45-11.68L223.45-11.68Q223.45-11.16 223.11-10.85L223.11-10.85L223.11-10.85Q222.77-10.55 222.26-10.55ZM227.88-4.36L227.88-4.36L227.88-4.36Q227.88-5.45 228.23-6.31L228.23-6.31L228.23-6.31Q228.58-7.16 229.18-7.76L229.18-7.76L229.18-7.76Q229.77-8.35 230.55-8.66L230.55-8.66L230.55-8.66Q231.34-8.96 232.20-8.96L232.20-8.96L232.20-8.96Q233.06-8.96 233.85-8.66L233.85-8.66L233.85-8.66Q234.63-8.35 235.22-7.76L235.22-7.76L235.22-7.76Q235.82-7.16 236.17-6.31L236.17-6.31L236.17-6.31Q236.52-5.45 236.52-4.36L236.52-4.36L236.52-4.36Q236.52-3.28 236.17-2.42L236.17-2.42L236.17-2.42Q235.82-1.57 235.22-0.98L235.22-0.98L235.22-0.98Q234.63-0.40 233.85-0.09L233.85-0.09L233.85-0.09Q233.06 0.22 232.20 0.22L232.20 0.22L232.20 0.22Q231.34 0.22 230.55-0.09L230.55-0.09L230.55-0.09Q229.77-0.40 229.18-0.98L229.18-0.98L229.18-0.98Q228.58-1.57 228.23-2.42L228.23-2.42L228.23-2.42Q227.88-3.28 227.88-4.36ZM229.41-4.36L229.41-4.36L229.41-4.36Q229.41-3.60 229.61-2.99L229.61-2.99L229.61-2.99Q229.81-2.38 230.18-1.94L230.18-1.94L230.18-1.94Q230.54-1.49 231.06-1.25L231.06-1.25L231.06-1.25Q231.57-1.01 232.20-1.01L232.20-1.01L232.20-1.01Q232.83-1.01 233.34-1.25L233.34-1.25L233.34-1.25Q233.86-1.49 234.23-1.94L234.23-1.94L234.23-1.94Q234.59-2.38 234.79-2.99L234.79-2.99L234.79-2.99Q234.99-3.60 234.99-4.36L234.99-4.36L234.99-4.36Q234.99-5.11 234.79-5.73L234.79-5.73L234.79-5.73Q234.59-6.35 234.23-6.80L234.23-6.80L234.23-6.80Q233.86-7.25 233.34-7.50L233.34-7.50L233.34-7.50Q232.83-7.74 232.20-7.74L232.20-7.74L232.20-7.74Q231.57-7.74 231.06-7.50L231.06-7.50L231.06-7.50Q230.54-7.25 230.18-6.80L230.18-6.80L230.18-6.80Q229.81-6.35 229.61-5.73L229.61-5.73L229.61-5.73Q229.41-5.11 229.41-4.36ZM239.27 0L239.27-8.75L240.50-8.75L240.62-7.25L240.70-7.25L240.70-7.25Q241.38-7.99 242.17-8.48L242.17-8.48L242.17-8.48Q242.96-8.96 243.99-8.96L243.99-8.96L243.99-8.96Q245.56-8.96 246.29-8.07L246.29-8.07L246.29-8.07Q247.01-7.18 247.01-5.44L247.01-5.44L247.01 0L245.54 0L245.54-5.24L245.54-5.24Q245.54-6.48 245.07-7.08L245.07-7.08L245.07-7.08Q244.60-7.69 243.52-7.69L243.52-7.69L243.52-7.69Q243.13-7.69 242.79-7.59L242.79-7.59L242.79-7.59Q242.46-7.49 242.14-7.29L242.14-7.29L242.14-7.29Q241.81-7.09 241.47-6.80L241.47-6.80L241.47-6.80Q241.13-6.50 240.75-6.10L240.75-6.10L240.75 0L239.27 0Z" fill="#fff"></path></g></g><style>text {
  font-size: 64px;
  font-family: Arial Black;
  dominant-baseline: central;
  text-anchor: middle;
}</style></svg>