<svg width="342.9875px" height="51.2px" xmlns="http://www.w3.org/2000/svg" viewBox="78.50625 49.4 342.9875 51.2" style="background: none;" preserveAspectRatio="xMidYMid"><defs><filter id="editing-lego" x="-100%" y="-100%" width="300%" height="300%"><feFlood flood-color="#000" result="f1"></feFlood><feFlood flood-color="#ffff00" result="f2"></feFlood><feMorphology operator="dilate" radius="3" in="SourceAlpha"></feMorphology><feConvolveMatrix order="5,5" divisor="1" result="cm1" kernelMatrix="0 1 1 1 0  1 0 0 0 1  1 0 0 0 1  1 0 0 0 1  0 1 1 1 0"></feConvolveMatrix><feComposite operator="in" in="f1" in2="cm1" result="c1"></feComposite><feMorphology operator="dilate" radius="3"></feMorphology><feConvolveMatrix order="5,5" divisor="1" result="cm2" kernelMatrix="0 1 1 1 0  1 0 0 0 1  1 0 0 0 1  1 0 0 0 1  0 1 1 1 0"></feConvolveMatrix><feComposite operator="in" in="f2" in2="cm2" result="c2"></feComposite><feMerge><feMergeNode in="c2"></feMergeNode><feMergeNode in="c1"></feMergeNode><feMergeNode in="SourceGraphic"></feMergeNode></feMerge></filter></defs><g filter="url(#editing-lego)"><g transform="translate(131.51497864723206, 81.625)"><path d="M4.64 0L4.64-10.55L0.76-10.55L0.76-11.81L10.04-11.81L10.04-10.55L6.16-10.55L6.16 0L4.64 0ZM12.22 0L12.22-11.81L13.73-11.81L13.73-6.86L18.67-6.86L18.67-11.81L20.18-11.81L20.18 0L18.67 0L18.67-5.56L13.73-5.56L13.73 0L12.22 0ZM24.89-10.60L24.89-6.21L26.86-6.21L26.86-6.21Q28.24-6.21 28.97-6.78L28.97-6.78L28.97-6.78Q29.70-7.34 29.70-8.50L29.70-8.50L29.70-8.50Q29.70-9.67 28.97-10.13L28.97-10.13L28.97-10.13Q28.24-10.60 26.86-10.60L26.86-10.60L24.89-10.60ZM31.55 0L29.84 0L27-4.99L24.89-4.99L24.89 0L23.40 0L23.40-11.81L27.07-11.81L27.07-11.81Q27.97-11.81 28.73-11.64L28.73-11.64L28.73-11.64Q29.48-11.47 30.03-11.07L30.03-11.07L30.03-11.07Q30.58-10.67 30.89-10.04L30.89-10.04L30.89-10.04Q31.19-9.41 31.19-8.50L31.19-8.50L31.19-8.50Q31.19-7.11 30.47-6.28L30.47-6.28L30.47-6.28Q29.75-5.45 28.55-5.15L28.55-5.15L31.55 0ZM34.47 0L34.47-11.81L41.76-11.81L41.76-10.55L35.98-10.55L35.98-6.84L40.86-6.84L40.86-5.56L35.98-5.56L35.98-1.28L41.94-1.28L41.94 0L34.47 0ZM45.27 0L45.27-11.81L52.56-11.81L52.56-10.55L46.78-10.55L46.78-6.84L51.66-6.84L51.66-5.56L46.78-5.56L46.78-1.28L52.74-1.28L52.74 0L45.27 0ZM57.94-1.30L57.94-1.30L57.94-1.30Q57.94-1.98 58.37-2.40L58.37-2.40L58.37-2.40Q58.79-2.83 59.40-2.83L59.40-2.83L59.40-2.83Q60.01-2.83 60.44-2.40L60.44-2.40L60.44-2.40Q60.86-1.98 60.86-1.30L60.86-1.30L60.86-1.30Q60.86-0.61 60.44-0.20L60.44-0.20L60.44-0.20Q60.01 0.22 59.40 0.22L59.40 0.22L59.40 0.22Q58.79 0.22 58.37-0.20L58.37-0.20L58.37-0.20Q57.94-0.61 57.94-1.30ZM66.26-1.75L67.23-2.65L67.23-2.65Q67.75-1.85 68.40-1.48L68.40-1.48L68.40-1.48Q69.05-1.10 69.73-1.10L69.73-1.10L69.73-1.10Q71.01-1.10 71.59-1.77L71.59-1.77L71.59-1.77Q72.18-2.45 72.18-3.91L72.18-3.91L72.18-10.57L67.23-10.57L67.23-11.83L73.67-11.83L73.67-3.78L73.67-3.78Q73.67-2.95 73.48-2.22L73.48-2.22L73.48-2.22Q73.28-1.49 72.82-0.95L72.82-0.95L72.82-0.95Q72.36-0.41 71.61-0.10L71.61-0.10L71.61-0.10Q70.87 0.22 69.77 0.22L69.77 0.22L69.77 0.22Q68.76 0.22 67.81-0.25L67.81-0.25L67.81-0.25Q66.87-0.72 66.26-1.75L66.26-1.75ZM76.81-1.53L77.71-2.57L77.71-2.57Q78.37-1.91 79.25-1.50L79.25-1.50L79.25-1.50Q80.14-1.10 81.11-1.10L81.11-1.10L81.11-1.10Q82.37-1.10 83.05-1.63L83.05-1.63L83.05-1.63Q83.74-2.16 83.74-3.02L83.74-3.02L83.74-3.02Q83.74-3.47 83.57-3.79L83.57-3.79L83.57-3.79Q83.41-4.10 83.12-4.33L83.12-4.33L83.12-4.33Q82.84-4.55 82.45-4.73L82.45-4.73L82.45-4.73Q82.06-4.91 81.61-5.11L81.61-5.11L79.92-5.85L79.92-5.85Q79.47-6.03 79.02-6.28L79.02-6.28L79.02-6.28Q78.57-6.53 78.20-6.89L78.20-6.89L78.20-6.89Q77.83-7.25 77.60-7.75L77.60-7.75L77.60-7.75Q77.36-8.24 77.36-8.89L77.36-8.89L77.36-8.89Q77.36-9.56 77.65-10.13L77.65-10.13L77.65-10.13Q77.94-10.71 78.45-11.13L78.45-11.13L78.45-11.13Q78.97-11.56 79.68-11.79L79.68-11.79L79.68-11.79Q80.39-12.02 81.23-12.02L81.23-12.02L81.23-12.02Q82.35-12.02 83.29-11.62L83.29-11.62L83.29-11.62Q84.22-11.21 84.87-10.57L84.87-10.57L84.08-9.59L84.08-9.59Q83.50-10.12 82.81-10.41L82.81-10.41L82.81-10.41Q82.12-10.71 81.23-10.71L81.23-10.71L81.23-10.71Q80.15-10.71 79.52-10.25L79.52-10.25L79.52-10.25Q78.89-9.79 78.89-8.98L78.89-8.98L78.89-8.98Q78.89-8.55 79.08-8.25L79.08-8.25L79.08-8.25Q79.27-7.96 79.57-7.73L79.57-7.73L79.57-7.73Q79.87-7.51 80.24-7.34L80.24-7.34L80.24-7.34Q80.62-7.18 81-7.02L81-7.02L82.66-6.30L82.66-6.30Q83.20-6.08 83.67-5.81L83.67-5.81L83.67-5.81Q84.15-5.53 84.50-5.16L84.50-5.16L84.50-5.16Q84.85-4.79 85.06-4.29L85.06-4.29L85.06-4.29Q85.27-3.80 85.27-3.15L85.27-3.15L85.27-3.15Q85.27-2.45 84.98-1.84L84.98-1.84L84.98-1.84Q84.69-1.22 84.15-0.77L84.15-0.77L84.15-0.77Q83.61-0.31 82.84-0.05L82.84-0.05L82.84-0.05Q82.06 0.22 81.09 0.22L81.09 0.22L81.09 0.22Q79.79 0.22 78.70-0.25L78.70-0.25L78.70-0.25Q77.62-0.72 76.81-1.53L76.81-1.53ZM98.64-4.36L98.64-4.36L98.64-4.36Q98.64-5.45 99.03-6.31L99.03-6.31L99.03-6.31Q99.41-7.16 100.08-7.76L100.08-7.76L100.08-7.76Q100.75-8.35 101.64-8.66L101.64-8.66L101.64-8.66Q102.53-8.96 103.52-8.96L103.52-8.96L103.52-8.96Q104.60-8.96 105.38-8.59L105.38-8.59L105.38-8.59Q106.16-8.21 106.70-7.69L106.70-7.69L105.97-6.73L105.97-6.73Q105.43-7.20 104.84-7.47L104.84-7.47L104.84-7.47Q104.26-7.74 103.57-7.74L103.57-7.74L103.57-7.74Q102.82-7.74 102.19-7.50L102.19-7.50L102.19-7.50Q101.56-7.25 101.11-6.80L101.11-6.80L101.11-6.80Q100.67-6.35 100.42-5.73L100.42-5.73L100.42-5.73Q100.17-5.11 100.17-4.36L100.17-4.36L100.17-4.36Q100.17-3.60 100.41-2.99L100.41-2.99L100.41-2.99Q100.66-2.38 101.10-1.94L101.10-1.94L101.10-1.94Q101.54-1.49 102.16-1.25L102.16-1.25L102.16-1.25Q102.78-1.01 103.54-1.01L103.54-1.01L103.54-1.01Q104.35-1.01 105.02-1.32L105.02-1.32L105.02-1.32Q105.70-1.64 106.25-2.11L106.25-2.11L106.90-1.15L106.90-1.15Q106.18-0.50 105.29-0.14L105.29-0.14L105.29-0.14Q104.40 0.22 103.43 0.22L103.43 0.22L103.43 0.22Q102.40 0.22 101.53-0.09L101.53-0.09L101.53-0.09Q100.66-0.40 100.01-0.98L100.01-0.98L100.01-0.98Q99.36-1.57 99.00-2.42L99.00-2.42L99.00-2.42Q98.64-3.28 98.64-4.36ZM109.24-4.36L109.24-4.36L109.24-4.36Q109.24-5.44 109.62-6.29L109.62-6.29L109.62-6.29Q110.00-7.15 110.62-7.74L110.62-7.74L110.62-7.74Q111.24-8.33 112.04-8.65L112.04-8.65L112.04-8.65Q112.84-8.96 113.69-8.96L113.69-8.96L113.69-8.96Q114.62-8.96 115.36-8.67L115.36-8.67L115.36-8.67Q116.10-8.37 116.61-7.83L116.61-7.83L116.61-7.83Q117.13-7.29 117.40-6.53L117.40-6.53L117.40-6.53Q117.67-5.78 117.67-4.86L117.67-4.86L117.67-4.86Q117.67-4.63 117.66-4.40L117.66-4.40L117.66-4.40Q117.65-4.18 117.61-4.01L117.61-4.01L110.77-4.01L110.77-4.01Q110.79-3.31 111.05-2.75L111.05-2.75L111.05-2.75Q111.31-2.20 111.75-1.80L111.75-1.80L111.75-1.80Q112.19-1.40 112.80-1.19L112.80-1.19L112.80-1.19Q113.40-0.97 114.12-0.97L114.12-0.97L114.12-0.97Q114.89-0.97 115.53-1.19L115.53-1.19L115.53-1.19Q116.17-1.40 116.78-1.78L116.78-1.78L117.31-0.81L117.31-0.81Q116.66-0.40 115.83-0.09L115.83-0.09L115.83-0.09Q115.00 0.22 113.94 0.22L113.94 0.22L113.94 0.22Q112.97 0.22 112.11-0.10L112.11-0.10L112.11-0.10Q111.26-0.41 110.62-1.00L110.62-1.00L110.62-1.00Q109.98-1.58 109.61-2.43L109.61-2.43L109.61-2.43Q109.24-3.28 109.24-4.36ZM110.75-5.08L116.30-5.08L116.30-5.08Q116.30-6.39 115.61-7.09L115.61-7.09L115.61-7.09Q114.93-7.79 113.71-7.79L113.71-7.79L113.71-7.79Q113.17-7.79 112.67-7.61L112.67-7.61L112.67-7.61Q112.18-7.43 111.78-7.08L111.78-7.08L111.78-7.08Q111.38-6.73 111.11-6.23L111.11-6.23L111.11-6.23Q110.84-5.72 110.75-5.08L110.75-5.08ZM121.43 0L121.43-8.75L122.65-8.75L122.78-6.68L122.83-6.68L122.83-6.68Q123.52-7.74 124.51-8.35L124.51-8.35L124.51-8.35Q125.51-8.96 126.74-8.96L126.74-8.96L126.74-8.96Q127.22-8.96 127.64-8.88L127.64-8.88L127.64-8.88Q128.05-8.80 128.47-8.60L128.47-8.60L128.12-7.33L128.12-7.33Q127.66-7.49 127.34-7.56L127.34-7.56L127.34-7.56Q127.03-7.63 126.50-7.63L126.50-7.63L126.50-7.63Q125.51-7.63 124.60-7.07L124.60-7.07L124.60-7.07Q123.70-6.50 122.90-5.13L122.90-5.13L122.90 0L121.43 0ZM133.31-3.40L133.31-7.54L130.84-7.54L130.84-8.66L133.36-8.75L133.56-11.20L134.78-11.20L134.78-8.75L139.09-8.75L139.09-7.54L134.78-7.54L134.78-3.38L134.78-3.38Q134.78-2.79 134.89-2.35L134.89-2.35L134.89-2.35Q135-1.91 135.25-1.60L135.25-1.60L135.25-1.60Q135.50-1.30 135.94-1.14L135.94-1.14L135.94-1.14Q136.37-0.99 137.00-0.99L137.00-0.99L137.00-0.99Q137.63-0.99 138.13-1.10L138.13-1.10L138.13-1.10Q138.64-1.21 139.10-1.39L139.10-1.39L139.43-0.31L139.43-0.31Q138.83-0.09 138.11 0.06L138.11 0.06L138.11 0.06Q137.39 0.22 136.67 0.22L136.67 0.22L136.67 0.22Q135.72 0.22 135.07-0.05L135.07-0.05L135.07-0.05Q134.42-0.31 134.04-0.78L134.04-0.78L134.04-0.78Q133.65-1.26 133.48-1.93L133.48-1.93L133.48-1.93Q133.31-2.59 133.31-3.40L133.31-3.40ZM142.02-7.54L142.02-8.75L147.56-8.75L147.56 0L146.09 0L146.09-7.54L142.02-7.54ZM146.66-10.55L146.66-10.55L146.66-10.55Q146.14-10.55 145.81-10.85L145.81-10.85L145.81-10.85Q145.48-11.16 145.48-11.68L145.48-11.68L145.48-11.68Q145.48-12.20 145.81-12.52L145.81-12.52L145.81-12.52Q146.14-12.83 146.66-12.83L146.66-12.83L146.66-12.83Q147.17-12.83 147.51-12.52L147.51-12.52L147.51-12.52Q147.85-12.20 147.85-11.68L147.85-11.68L147.85-11.68Q147.85-11.16 147.51-10.85L147.51-10.85L147.51-10.85Q147.17-10.55 146.66-10.55ZM161.60-12.53L161.26-11.41L161.26-11.41Q160.72-11.66 160.26-11.75L160.26-11.75L160.26-11.75Q159.80-11.83 159.23-11.83L159.23-11.83L159.23-11.83Q158.04-11.83 157.53-11.22L157.53-11.22L157.53-11.22Q157.01-10.62 157.01-9.54L157.01-9.54L157.01-8.75L160.69-8.75L160.69-7.54L157.01-7.54L157.01 0L155.56 0L155.56-7.54L153.05-7.54L153.05-8.66L155.56-8.75L155.56-9.49L155.56-9.49Q155.56-11.09 156.41-12.06L156.41-12.06L156.41-12.06Q157.27-13.03 159.08-13.03L159.08-13.03L159.08-13.03Q160.38-13.03 161.60-12.53L161.60-12.53ZM163.62-7.54L163.62-8.75L169.16-8.75L169.16 0L167.69 0L167.69-7.54L163.62-7.54ZM168.26-10.55L168.26-10.55L168.26-10.55Q167.74-10.55 167.41-10.85L167.41-10.85L167.41-10.85Q167.08-11.16 167.08-11.68L167.08-11.68L167.08-11.68Q167.08-12.20 167.41-12.52L167.41-12.52L167.41-12.52Q167.74-12.83 168.26-12.83L168.26-12.83L168.26-12.83Q168.77-12.83 169.11-12.52L169.11-12.52L169.11-12.52Q169.45-12.20 169.45-11.68L169.45-11.68L169.45-11.68Q169.45-11.16 169.11-10.85L169.11-10.85L169.11-10.85Q168.77-10.55 168.26-10.55ZM174.24-4.36L174.24-4.36L174.24-4.36Q174.24-5.45 174.63-6.31L174.63-6.31L174.63-6.31Q175.01-7.16 175.68-7.76L175.68-7.76L175.68-7.76Q176.35-8.35 177.24-8.66L177.24-8.66L177.24-8.66Q178.13-8.96 179.12-8.96L179.12-8.96L179.12-8.96Q180.20-8.96 180.98-8.59L180.98-8.59L180.98-8.59Q181.76-8.21 182.30-7.69L182.30-7.69L181.57-6.73L181.57-6.73Q181.03-7.20 180.44-7.47L180.44-7.47L180.44-7.47Q179.86-7.74 179.17-7.74L179.17-7.74L179.17-7.74Q178.42-7.74 177.79-7.50L177.79-7.50L177.79-7.50Q177.16-7.25 176.72-6.80L176.72-6.80L176.72-6.80Q176.27-6.35 176.02-5.73L176.02-5.73L176.02-5.73Q175.77-5.11 175.77-4.36L175.77-4.36L175.77-4.36Q175.77-3.60 176.01-2.99L176.01-2.99L176.01-2.99Q176.26-2.38 176.70-1.94L176.70-1.94L176.70-1.94Q177.14-1.49 177.76-1.25L177.76-1.25L177.76-1.25Q178.38-1.01 179.14-1.01L179.14-1.01L179.14-1.01Q179.95-1.01 180.62-1.32L180.62-1.32L180.62-1.32Q181.30-1.64 181.85-2.11L181.85-2.11L182.50-1.15L182.50-1.15Q181.78-0.50 180.89-0.14L180.89-0.14L180.89-0.14Q180.00 0.22 179.03 0.22L179.03 0.22L179.03 0.22Q178.00 0.22 177.13-0.09L177.13-0.09L177.13-0.09Q176.26-0.40 175.61-0.98L175.61-0.98L175.61-0.98Q174.96-1.57 174.60-2.42L174.60-2.42L174.60-2.42Q174.24-3.28 174.24-4.36ZM185.06-2.27L185.06-2.27L185.06-2.27Q185.06-3.01 185.41-3.56L185.41-3.56L185.41-3.56Q185.76-4.10 186.53-4.50L186.53-4.50L186.53-4.50Q187.29-4.90 188.50-5.15L188.50-5.15L188.50-5.15Q189.70-5.40 191.39-5.54L191.39-5.54L191.39-5.54Q191.38-5.99 191.25-6.39L191.25-6.39L191.25-6.39Q191.12-6.79 190.85-7.08L190.85-7.08L190.85-7.08Q190.58-7.38 190.14-7.56L190.14-7.56L190.14-7.56Q189.70-7.74 189.07-7.74L189.07-7.74L189.07-7.74Q188.21-7.74 187.42-7.41L187.42-7.41L187.42-7.41Q186.62-7.07 186.01-6.70L186.01-6.70L185.44-7.70L185.44-7.70Q185.76-7.92 186.20-8.15L186.20-8.15L186.20-8.15Q186.64-8.37 187.14-8.55L187.14-8.55L187.14-8.55Q187.63-8.73 188.19-8.85L188.19-8.85L188.19-8.85Q188.75-8.96 189.32-8.96L189.32-8.96L189.32-8.96Q191.12-8.96 192.00-7.98L192.00-7.98L192.00-7.98Q192.87-7.00 192.87-5.36L192.87-5.36L192.87 0L191.66 0L191.54-1.19L191.48-1.19L191.48-1.19Q190.75-0.61 189.86-0.20L189.86-0.20L189.86-0.20Q188.96 0.22 188.03 0.22L188.03 0.22L188.03 0.22Q187.42 0.22 186.88 0.05L186.88 0.05L186.88 0.05Q186.34-0.13 185.93-0.44L185.93-0.44L185.93-0.44Q185.53-0.76 185.29-1.22L185.29-1.22L185.29-1.22Q185.06-1.67 185.06-2.27ZM186.50-2.38L186.50-2.38L186.50-2.38Q186.50-2.00 186.66-1.74L186.66-1.74L186.66-1.74Q186.82-1.48 187.08-1.31L187.08-1.31L187.08-1.31Q187.34-1.13 187.70-1.05L187.70-1.05L187.70-1.05Q188.05-0.97 188.42-0.97L188.42-0.97L188.42-0.97Q189.18-0.97 189.91-1.31L189.91-1.31L189.91-1.31Q190.64-1.64 191.39-2.27L191.39-2.27L191.39-4.57L191.39-4.57Q189.99-4.46 189.05-4.27L189.05-4.27L189.05-4.27Q188.10-4.07 187.53-3.79L187.53-3.79L187.53-3.79Q186.97-3.51 186.73-3.16L186.73-3.16L186.73-3.16Q186.50-2.81 186.50-2.38ZM198.11-3.40L198.11-7.54L195.64-7.54L195.64-8.66L198.16-8.75L198.36-11.20L199.58-11.20L199.58-8.75L203.89-8.75L203.89-7.54L199.58-7.54L199.58-3.38L199.58-3.38Q199.58-2.79 199.69-2.35L199.69-2.35L199.69-2.35Q199.80-1.91 200.05-1.60L200.05-1.60L200.05-1.60Q200.30-1.30 200.74-1.14L200.74-1.14L200.74-1.14Q201.17-0.99 201.80-0.99L201.80-0.99L201.80-0.99Q202.43-0.99 202.93-1.10L202.93-1.10L202.93-1.10Q203.44-1.21 203.90-1.39L203.90-1.39L204.23-0.31L204.23-0.31Q203.63-0.09 202.91 0.06L202.91 0.06L202.91 0.06Q202.19 0.22 201.47 0.22L201.47 0.22L201.47 0.22Q200.52 0.22 199.87-0.05L199.87-0.05L199.87-0.05Q199.22-0.31 198.84-0.78L198.84-0.78L198.84-0.78Q198.45-1.26 198.28-1.93L198.28-1.93L198.28-1.93Q198.11-2.59 198.11-3.40L198.11-3.40ZM206.82-7.54L206.82-8.75L212.36-8.75L212.36 0L210.89 0L210.89-7.54L206.82-7.54ZM211.46-10.55L211.46-10.55L211.46-10.55Q210.94-10.55 210.61-10.85L210.61-10.85L210.61-10.85Q210.28-11.16 210.28-11.68L210.28-11.68L210.28-11.68Q210.28-12.20 210.61-12.52L210.61-12.52L210.61-12.52Q210.94-12.83 211.46-12.83L211.46-12.83L211.46-12.83Q211.97-12.83 212.31-12.52L212.31-12.52L212.31-12.52Q212.65-12.20 212.65-11.68L212.65-11.68L212.65-11.68Q212.65-11.16 212.31-10.85L212.31-10.85L212.31-10.85Q211.97-10.55 211.46-10.55ZM217.08-4.36L217.08-4.36L217.08-4.36Q217.08-5.45 217.43-6.31L217.43-6.31L217.43-6.31Q217.78-7.16 218.38-7.76L218.38-7.76L218.38-7.76Q218.97-8.35 219.75-8.66L219.75-8.66L219.75-8.66Q220.54-8.96 221.40-8.96L221.40-8.96L221.40-8.96Q222.26-8.96 223.05-8.66L223.05-8.66L223.05-8.66Q223.83-8.35 224.42-7.76L224.42-7.76L224.42-7.76Q225.02-7.16 225.37-6.31L225.37-6.31L225.37-6.31Q225.72-5.45 225.72-4.36L225.72-4.36L225.72-4.36Q225.72-3.28 225.37-2.42L225.37-2.42L225.37-2.42Q225.02-1.57 224.42-0.98L224.42-0.98L224.42-0.98Q223.83-0.40 223.05-0.09L223.05-0.09L223.05-0.09Q222.26 0.22 221.40 0.22L221.40 0.22L221.40 0.22Q220.54 0.22 219.75-0.09L219.75-0.09L219.75-0.09Q218.97-0.40 218.38-0.98L218.38-0.98L218.38-0.98Q217.78-1.57 217.43-2.42L217.43-2.42L217.43-2.42Q217.08-3.28 217.08-4.36ZM218.61-4.36L218.61-4.36L218.61-4.36Q218.61-3.60 218.81-2.99L218.81-2.99L218.81-2.99Q219.01-2.38 219.38-1.94L219.38-1.94L219.38-1.94Q219.74-1.49 220.26-1.25L220.26-1.25L220.26-1.25Q220.77-1.01 221.40-1.01L221.40-1.01L221.40-1.01Q222.03-1.01 222.54-1.25L222.54-1.25L222.54-1.25Q223.06-1.49 223.43-1.94L223.43-1.94L223.43-1.94Q223.79-2.38 223.99-2.99L223.99-2.99L223.99-2.99Q224.19-3.60 224.19-4.36L224.19-4.36L224.19-4.36Q224.19-5.11 223.99-5.73L223.99-5.73L223.99-5.73Q223.79-6.35 223.43-6.80L223.43-6.80L223.43-6.80Q223.06-7.25 222.54-7.50L222.54-7.50L222.54-7.50Q222.03-7.74 221.40-7.74L221.40-7.74L221.40-7.74Q220.77-7.74 220.26-7.50L220.26-7.50L220.26-7.50Q219.74-7.25 219.38-6.80L219.38-6.80L219.38-6.80Q219.01-6.35 218.81-5.73L218.81-5.73L218.81-5.73Q218.61-5.11 218.61-4.36ZM228.47 0L228.47-8.75L229.70-8.75L229.82-7.25L229.90-7.25L229.90-7.25Q230.58-7.99 231.37-8.48L231.37-8.48L231.37-8.48Q232.16-8.96 233.19-8.96L233.19-8.96L233.19-8.96Q234.76-8.96 235.49-8.07L235.49-8.07L235.49-8.07Q236.21-7.18 236.21-5.44L236.21-5.44L236.21 0L234.74 0L234.74-5.24L234.74-5.24Q234.74-6.48 234.27-7.08L234.27-7.08L234.27-7.08Q233.80-7.69 232.72-7.69L232.72-7.69L232.72-7.69Q232.33-7.69 231.99-7.59L231.99-7.59L231.99-7.59Q231.66-7.49 231.34-7.29L231.34-7.29L231.34-7.29Q231.01-7.09 230.67-6.80L230.67-6.80L230.67-6.80Q230.33-6.50 229.95-6.10L229.95-6.10L229.95 0L228.47 0Z" fill="#fff"></path></g></g><style>text {
  font-size: 64px;
  font-family: Arial Black;
  dominant-baseline: central;
  text-anchor: middle;
}</style></svg>